  0
SECTION
  2
HEADER
  9
$ACADVER
  1
AC1009
  9
$FILLMODE
 70
1
  9
$EXTMIN
 10
-0.1300
 20
-2.4433
 30
0.0000
  9
$EXTMAX
 10
200.1300
 20
137.1352
 30
0.0000
  0
ENDSEC
  0
SECTION
  2
TABLES
  0
TABLE
  2
LTYPE
 70
1
  0
LTYPE
  2
CONTINUOUS
 70
64
  3
Solid line
 72
65
 73
0
 40
0
  0
ENDTAB
  0
TABLE
  2
LAYER
 70
255
  0
LAYER
  2
20
 70
64
 62
31
  6
CONTINUOUS
  0
LAYER
  2
40
 70
64
 62
132
  6
CONTINUOUS
  0
LAYER
  2
46
 70
64
 62
140
  6
CONTINUOUS
  0
ENDTAB
  0
ENDSEC
  0
SECTION
  2
BLOCKS
  0
BLOCK
  8
0
  2
RECT
 70
64
 10
0.0000
 20
0.0000
 30
0.0000
  3
RECT
  0
SOLID
  8
0
 10
-0.5000
 20
-0.5000
 30
0.0000
 11
0.5000
 21
-0.5000
 31
0.0000
 12
-0.5000
 22
0.5000
 32
0.0000
 13
0.5000
 23
0.5000
 33
0.0000
  0
ENDBLK
  8
0
  0
BLOCK
  8
0
  2
PIE
 70
64
 10
0.0000
 20
0.0000
 30
0.0000
  3
PIE
  0
POLYLINE
  8
0
 66
1
 10
0.0000
 20
0.0000
 30
0.0000
 40
0.5000
 41
0.5000
 70
0
  0
VERTEX
  8
0
 10
0.0000
 20
-0.2500
 30
0.0000
 42
1.0000
  0
VERTEX
  8
0
 10
0.0000
 20
0.2500
 30
0.0000
 42
1.0000
  0
VERTEX
  8
0
 10
0.0000
 20
-0.2500
 30
0.0000
  0
SEQEND
  8
0
  0
ENDBLK
  8
0
  0
BLOCK
  8
0
  2
OCTAGONP
 70
64
 10
0.0000
 20
0.0000
 30
0.0000
  3
OCTAGONP
  0
POLYLINE
  8
0
 66
1
 10
0.0000
 20
0.0000
 30
0.0000
 40
0.5000
 41
0.5000
 70
0
  0
VERTEX
  8
0
 10
-0.2500
 20
-0.1036
 30
0.0000
  0
VERTEX
  8
0
 10
-0.2500
 20
0.1036
 30
0.0000
  0
VERTEX
  8
0
 10
-0.1036
 20
0.2500
 30
0.0000
  0
VERTEX
  8
0
 10
0.1036
 20
0.2500
 30
0.0000
  0
VERTEX
  8
0
 10
0.2500
 20
0.1036
 30
0.0000
  0
VERTEX
  8
0
 10
0.2500
 20
-0.1036
 30
0.0000
  0
VERTEX
  8
0
 10
0.1036
 20
-0.2500
 30
0.0000
  0
VERTEX
  8
0
 10
-0.1036
 20
-0.2500
 30
0.0000
  0
VERTEX
  8
0
 10
-0.2500
 20
-0.1036
 30
0.0000
  0
VERTEX
  8
0
 10
-0.2500
 20
0.1036
 30
0.0000
  0
SEQEND
  8
0
  0
ENDBLK
  8
0
  0
BLOCK
  8
0
  2
SQUAREP
 70
64
 10
0.0000
 20
0.0000
 30
0.0000
  3
SQUAREP
  0
SOLID
  8
0
 10
-0.5000
 20
-0.5000
 30
0.0000
 11
0.5000
 21
-0.5000
 31
0.0000
 12
-0.5000
 22
0.5000
 32
0.0000
 13
0.5000
 23
0.5000
 33
0.0000
  0
ENDBLK
  8
0
  0
BLOCK
  8
0
  2
ROUNDP
 70
64
 10
0.0000
 20
0.0000
 30
0.0000
  3
ROUNDP
  0
POLYLINE
  8
0
 66
1
 10
0.0000
 20
0.0000
 30
0.0000
 40
0.5000
 41
0.5000
 70
0
  0
VERTEX
  8
0
 10
0.0000
 20
-0.2500
 30
0.0000
 42
1.0000
  0
VERTEX
  8
0
 10
0.0000
 20
0.2500
 30
0.0000
 42
1.0000
  0
VERTEX
  8
0
 10
0.0000
 20
-0.2500
 30
0.0000
  0
SEQEND
  8
0
  0
ENDBLK
  8
0
  0
BLOCK
  8
0
  2
ANNULUSP
 70
64
 10
0.0000
 20
0.0000
 30
0.0000
  3
ANNULUSP
  0
POLYLINE
  8
0
 66
1
 10
0.0000
 20
0.0000
 30
0.0000
 40
0.5000
 41
0.5000
 70
0
  0
VERTEX
  8
0
 10
0.0000
 20
-0.2500
 30
0.0000
 42
1.0000
  0
VERTEX
  8
0
 10
0.0000
 20
0.2500
 30
0.0000
 42
1.0000
  0
VERTEX
  8
0
 10
0.0000
 20
-0.2500
 30
0.0000
  0
SEQEND
  8
0
  0
ENDBLK
  8
0
  0
BLOCK
  8
0
  2
THERMALP
 70
64
 10
0.0000
 20
0.0000
 30
0.0000
  3
THERMALP
  0
POLYLINE
  8
0
 66
1
 10
0.0000
 20
0.0000
 30
0.0000
 40
0.1000
 41
0.1000
 70
0
  0
VERTEX
  8
0
 10
-0.2379
 20
0.4500
 30
0.0000
  0
VERTEX
  8
0
 10
0.2379
 20
0.4500
 30
0.0000
  0
SEQEND
  8
0
  0
POLYLINE
  8
0
 66
1
 10
0.0000
 20
0.0000
 30
0.0000
 40
0.0500
 41
0.0500
 70
0
  0
VERTEX
  8
0
 10
0.2379
 20
0.4250
 30
0.0000
 42
1.0000
  0
VERTEX
  8
0
 10
0.2379
 20
0.4750
 30
0.0000
  0
SEQEND
  8
0
  0
POLYLINE
  8
0
 66
1
 10
0.0000
 20
0.0000
 30
0.0000
 40
0.0500
 41
0.0500
 70
0
  0
VERTEX
  8
0
 10
-0.2379
 20
0.4750
 30
0.0000
 42
1.0000
  0
VERTEX
  8
0
 10
-0.2379
 20
0.4250
 30
0.0000
  0
SEQEND
  8
0
  0
POLYLINE
  8
0
 66
1
 10
0.0000
 20
0.0000
 30
0.0000
 40
0.1000
 41
0.1000
 70
0
  0
VERTEX
  8
0
 10
0.4500
 20
0.2379
 30
0.0000
  0
VERTEX
  8
0
 10
0.4500
 20
-0.2379
 30
0.0000
  0
SEQEND
  8
0
  0
POLYLINE
  8
0
 66
1
 10
0.0000
 20
0.0000
 30
0.0000
 40
0.0500
 41
0.0500
 70
0
  0
VERTEX
  8
0
 10
0.4250
 20
-0.2379
 30
0.0000
 42
1.0000
  0
VERTEX
  8
0
 10
0.4750
 20
-0.2379
 30
0.0000
  0
SEQEND
  8
0
  0
POLYLINE
  8
0
 66
1
 10
0.0000
 20
0.0000
 30
0.0000
 40
0.0500
 41
0.0500
 70
0
  0
VERTEX
  8
0
 10
0.4750
 20
0.2379
 30
0.0000
 42
1.0000
  0
VERTEX
  8
0
 10
0.4250
 20
0.2379
 30
0.0000
  0
SEQEND
  8
0
  0
POLYLINE
  8
0
 66
1
 10
0.0000
 20
0.0000
 30
0.0000
 40
0.1000
 41
0.1000
 70
0
  0
VERTEX
  8
0
 10
0.2379
 20
-0.4500
 30
0.0000
  0
VERTEX
  8
0
 10
-0.2379
 20
-0.4500
 30
0.0000
  0
SEQEND
  8
0
  0
POLYLINE
  8
0
 66
1
 10
0.0000
 20
0.0000
 30
0.0000
 40
0.0500
 41
0.0500
 70
0
  0
VERTEX
  8
0
 10
-0.2379
 20
-0.4250
 30
0.0000
 42
1.0000
  0
VERTEX
  8
0
 10
-0.2379
 20
-0.4750
 30
0.0000
  0
SEQEND
  8
0
  0
POLYLINE
  8
0
 66
1
 10
0.0000
 20
0.0000
 30
0.0000
 40
0.0500
 41
0.0500
 70
0
  0
VERTEX
  8
0
 10
0.2379
 20
-0.4750
 30
0.0000
 42
1.0000
  0
VERTEX
  8
0
 10
0.2379
 20
-0.4250
 30
0.0000
  0
SEQEND
  8
0
  0
POLYLINE
  8
0
 66
1
 10
0.0000
 20
0.0000
 30
0.0000
 40
0.1000
 41
0.1000
 70
0
  0
VERTEX
  8
0
 10
-0.4500
 20
-0.2379
 30
0.0000
  0
VERTEX
  8
0
 10
-0.4500
 20
0.2379
 30
0.0000
  0
SEQEND
  8
0
  0
POLYLINE
  8
0
 66
1
 10
0.0000
 20
0.0000
 30
0.0000
 40
0.0500
 41
0.0500
 70
0
  0
VERTEX
  8
0
 10
-0.4250
 20
0.2379
 30
0.0000
 42
1.0000
  0
VERTEX
  8
0
 10
-0.4750
 20
0.2379
 30
0.0000
  0
SEQEND
  8
0
  0
POLYLINE
  8
0
 66
1
 10
0.0000
 20
0.0000
 30
0.0000
 40
0.0500
 41
0.0500
 70
0
  0
VERTEX
  8
0
 10
-0.4750
 20
-0.2379
 30
0.0000
 42
1.0000
  0
VERTEX
  8
0
 10
-0.4250
 20
-0.2379
 30
0.0000
  0
SEQEND
  8
0
  0
ENDBLK
  8
0
  0
BLOCK
  8
0
  2
OCTAGONV
 70
64
 10
0.0000
 20
0.0000
 30
0.0000
  3
OCTAGONV
  0
POLYLINE
  8
0
 66
1
 10
0.0000
 20
0.0000
 30
0.0000
 40
0.5000
 41
0.5000
 70
0
  0
VERTEX
  8
0
 10
-0.2500
 20
-0.1036
 30
0.0000
  0
VERTEX
  8
0
 10
-0.2500
 20
0.1036
 30
0.0000
  0
VERTEX
  8
0
 10
-0.1036
 20
0.2500
 30
0.0000
  0
VERTEX
  8
0
 10
0.1036
 20
0.2500
 30
0.0000
  0
VERTEX
  8
0
 10
0.2500
 20
0.1036
 30
0.0000
  0
VERTEX
  8
0
 10
0.2500
 20
-0.1036
 30
0.0000
  0
VERTEX
  8
0
 10
0.1036
 20
-0.2500
 30
0.0000
  0
VERTEX
  8
0
 10
-0.1036
 20
-0.2500
 30
0.0000
  0
VERTEX
  8
0
 10
-0.2500
 20
-0.1036
 30
0.0000
  0
VERTEX
  8
0
 10
-0.2500
 20
0.1036
 30
0.0000
  0
SEQEND
  8
0
  0
ENDBLK
  8
0
  0
BLOCK
  8
0
  2
SQUAREV
 70
64
 10
0.0000
 20
0.0000
 30
0.0000
  3
SQUAREV
  0
SOLID
  8
0
 10
-0.5000
 20
-0.5000
 30
0.0000
 11
0.5000
 21
-0.5000
 31
0.0000
 12
-0.5000
 22
0.5000
 32
0.0000
 13
0.5000
 23
0.5000
 33
0.0000
  0
ENDBLK
  8
0
  0
BLOCK
  8
0
  2
ROUNDV
 70
64
 10
0.0000
 20
0.0000
 30
0.0000
  3
ROUNDV
  0
POLYLINE
  8
0
 66
1
 10
0.0000
 20
0.0000
 30
0.0000
 40
0.5000
 41
0.5000
 70
0
  0
VERTEX
  8
0
 10
0.0000
 20
-0.2500
 30
0.0000
 42
1.0000
  0
VERTEX
  8
0
 10
0.0000
 20
0.2500
 30
0.0000
 42
1.0000
  0
VERTEX
  8
0
 10
0.0000
 20
-0.2500
 30
0.0000
  0
SEQEND
  8
0
  0
ENDBLK
  8
0
  0
BLOCK
  8
0
  2
ANNULUSV
 70
64
 10
0.0000
 20
0.0000
 30
0.0000
  3
ANNULUSV
  0
POLYLINE
  8
0
 66
1
 10
0.0000
 20
0.0000
 30
0.0000
 40
0.5000
 41
0.5000
 70
0
  0
VERTEX
  8
0
 10
0.0000
 20
-0.2500
 30
0.0000
 42
1.0000
  0
VERTEX
  8
0
 10
0.0000
 20
0.2500
 30
0.0000
 42
1.0000
  0
VERTEX
  8
0
 10
0.0000
 20
-0.2500
 30
0.0000
  0
SEQEND
  8
0
  0
ENDBLK
  8
0
  0
BLOCK
  8
0
  2
THERMALV
 70
64
 10
0.0000
 20
0.0000
 30
0.0000
  3
THERMALV
  0
POLYLINE
  8
0
 66
1
 10
0.0000
 20
0.0000
 30
0.0000
 40
0.1000
 41
0.1000
 70
0
  0
VERTEX
  8
0
 10
-0.2379
 20
0.4500
 30
0.0000
  0
VERTEX
  8
0
 10
0.2379
 20
0.4500
 30
0.0000
  0
SEQEND
  8
0
  0
POLYLINE
  8
0
 66
1
 10
0.0000
 20
0.0000
 30
0.0000
 40
0.0500
 41
0.0500
 70
0
  0
VERTEX
  8
0
 10
0.2379
 20
0.4250
 30
0.0000
 42
1.0000
  0
VERTEX
  8
0
 10
0.2379
 20
0.4750
 30
0.0000
  0
SEQEND
  8
0
  0
POLYLINE
  8
0
 66
1
 10
0.0000
 20
0.0000
 30
0.0000
 40
0.0500
 41
0.0500
 70
0
  0
VERTEX
  8
0
 10
-0.2379
 20
0.4750
 30
0.0000
 42
1.0000
  0
VERTEX
  8
0
 10
-0.2379
 20
0.4250
 30
0.0000
  0
SEQEND
  8
0
  0
POLYLINE
  8
0
 66
1
 10
0.0000
 20
0.0000
 30
0.0000
 40
0.1000
 41
0.1000
 70
0
  0
VERTEX
  8
0
 10
0.4500
 20
0.2379
 30
0.0000
  0
VERTEX
  8
0
 10
0.4500
 20
-0.2379
 30
0.0000
  0
SEQEND
  8
0
  0
POLYLINE
  8
0
 66
1
 10
0.0000
 20
0.0000
 30
0.0000
 40
0.0500
 41
0.0500
 70
0
  0
VERTEX
  8
0
 10
0.4250
 20
-0.2379
 30
0.0000
 42
1.0000
  0
VERTEX
  8
0
 10
0.4750
 20
-0.2379
 30
0.0000
  0
SEQEND
  8
0
  0
POLYLINE
  8
0
 66
1
 10
0.0000
 20
0.0000
 30
0.0000
 40
0.0500
 41
0.0500
 70
0
  0
VERTEX
  8
0
 10
0.4750
 20
0.2379
 30
0.0000
 42
1.0000
  0
VERTEX
  8
0
 10
0.4250
 20
0.2379
 30
0.0000
  0
SEQEND
  8
0
  0
POLYLINE
  8
0
 66
1
 10
0.0000
 20
0.0000
 30
0.0000
 40
0.1000
 41
0.1000
 70
0
  0
VERTEX
  8
0
 10
0.2379
 20
-0.4500
 30
0.0000
  0
VERTEX
  8
0
 10
-0.2379
 20
-0.4500
 30
0.0000
  0
SEQEND
  8
0
  0
POLYLINE
  8
0
 66
1
 10
0.0000
 20
0.0000
 30
0.0000
 40
0.0500
 41
0.0500
 70
0
  0
VERTEX
  8
0
 10
-0.2379
 20
-0.4250
 30
0.0000
 42
1.0000
  0
VERTEX
  8
0
 10
-0.2379
 20
-0.4750
 30
0.0000
  0
SEQEND
  8
0
  0
POLYLINE
  8
0
 66
1
 10
0.0000
 20
0.0000
 30
0.0000
 40
0.0500
 41
0.0500
 70
0
  0
VERTEX
  8
0
 10
0.2379
 20
-0.4750
 30
0.0000
 42
1.0000
  0
VERTEX
  8
0
 10
0.2379
 20
-0.4250
 30
0.0000
  0
SEQEND
  8
0
  0
POLYLINE
  8
0
 66
1
 10
0.0000
 20
0.0000
 30
0.0000
 40
0.1000
 41
0.1000
 70
0
  0
VERTEX
  8
0
 10
-0.4500
 20
-0.2379
 30
0.0000
  0
VERTEX
  8
0
 10
-0.4500
 20
0.2379
 30
0.0000
  0
SEQEND
  8
0
  0
POLYLINE
  8
0
 66
1
 10
0.0000
 20
0.0000
 30
0.0000
 40
0.0500
 41
0.0500
 70
0
  0
VERTEX
  8
0
 10
-0.4250
 20
0.2379
 30
0.0000
 42
1.0000
  0
VERTEX
  8
0
 10
-0.4750
 20
0.2379
 30
0.0000
  0
SEQEND
  8
0
  0
POLYLINE
  8
0
 66
1
 10
0.0000
 20
0.0000
 30
0.0000
 40
0.0500
 41
0.0500
 70
0
  0
VERTEX
  8
0
 10
-0.4750
 20
-0.2379
 30
0.0000
 42
1.0000
  0
VERTEX
  8
0
 10
-0.4250
 20
-0.2379
 30
0.0000
  0
SEQEND
  8
0
  0
ENDBLK
  8
0
  0
BLOCK
  8
0
  2
LONGP100
 70
64
 10
0.0000
 20
0.0000
 30
0.0000
  3
LONGP100
  0
POLYLINE
  8
0
 66
1
 10
0.0000
 20
0.0000
 30
0.0000
 40
1.0000
 41
1.0000
 70
0
  0
VERTEX
  8
0
 10
-0.5000
 20
0.0000
 30
0.0000
  0
VERTEX
  8
0
 10
0.5000
 20
0.0000
 30
0.0000
  0
SEQEND
  8
0
  0
POLYLINE
  8
0
 66
1
 10
0.0000
 20
0.0000
 30
0.0000
 40
0.5000
 41
0.5000
 70
0
  0
VERTEX
  8
0
 10
0.5000
 20
-0.2500
 30
0.0000
 42
1.0000
  0
VERTEX
  8
0
 10
0.5000
 20
0.2500
 30
0.0000
  0
SEQEND
  8
0
  0
POLYLINE
  8
0
 66
1
 10
0.0000
 20
0.0000
 30
0.0000
 40
0.5000
 41
0.5000
 70
0
  0
VERTEX
  8
0
 10
-0.5000
 20
0.2500
 30
0.0000
 42
1.0000
  0
VERTEX
  8
0
 10
-0.5000
 20
-0.2500
 30
0.0000
  0
SEQEND
  8
0
  0
ENDBLK
  8
0
  0
ENDSEC
  0
SECTION
  2
ENTITIES
  0
POLYLINE
  8
20
 66
1
 10
0.0000
 20
0.0000
 30
0.0000
 40
0.2000
 41
0.2000
 70
0
  0
VERTEX
  8
20
 10
200.0000
 20
0.0000
 30
0.0000
  0
VERTEX
  8
20
 10
0.0000
 20
0.0000
 30
0.0000
  0
SEQEND
  8
0
  0
POLYLINE
  8
20
 66
1
 10
0.0000
 20
0.0000
 30
0.0000
 40
0.1000
 41
0.1000
 70
0
  0
VERTEX
  8
20
 10
0.0000
 20
0.0500
 30
0.0000
 42
1.0000
  0
VERTEX
  8
20
 10
0.0000
 20
-0.0500
 30
0.0000
  0
SEQEND
  8
0
  0
POLYLINE
  8
20
 66
1
 10
0.0000
 20
0.0000
 30
0.0000
 40
0.1000
 41
0.1000
 70
0
  0
VERTEX
  8
20
 10
200.0000
 20
-0.0500
 30
0.0000
 42
1.0000
  0
VERTEX
  8
20
 10
200.0000
 20
0.0500
 30
0.0000
  0
SEQEND
  8
0
  0
POLYLINE
  8
20
 66
1
 10
0.0000
 20
0.0000
 30
0.0000
 40
0.2000
 41
0.2000
 70
0
  0
VERTEX
  8
20
 10
0.0000
 20
0.0000
 30
0.0000
  0
VERTEX
  8
20
 10
0.0000
 20
130.0000
 30
0.0000
  0
SEQEND
  8
0
  0
POLYLINE
  8
20
 66
1
 10
0.0000
 20
0.0000
 30
0.0000
 40
0.1000
 41
0.1000
 70
0
  0
VERTEX
  8
20
 10
0.0500
 20
130.0000
 30
0.0000
 42
1.0000
  0
VERTEX
  8
20
 10
-0.0500
 20
130.0000
 30
0.0000
  0
SEQEND
  8
0
  0
POLYLINE
  8
20
 66
1
 10
0.0000
 20
0.0000
 30
0.0000
 40
0.1000
 41
0.1000
 70
0
  0
VERTEX
  8
20
 10
-0.0500
 20
0.0000
 30
0.0000
 42
1.0000
  0
VERTEX
  8
20
 10
0.0500
 20
0.0000
 30
0.0000
  0
SEQEND
  8
0
  0
POLYLINE
  8
20
 66
1
 10
0.0000
 20
0.0000
 30
0.0000
 40
0.2000
 41
0.2000
 70
0
  0
VERTEX
  8
20
 10
0.0000
 20
130.0000
 30
0.0000
  0
VERTEX
  8
20
 10
200.0000
 20
130.0000
 30
0.0000
  0
SEQEND
  8
0
  0
POLYLINE
  8
20
 66
1
 10
0.0000
 20
0.0000
 30
0.0000
 40
0.1000
 41
0.1000
 70
0
  0
VERTEX
  8
20
 10
200.0000
 20
129.9500
 30
0.0000
 42
1.0000
  0
VERTEX
  8
20
 10
200.0000
 20
130.0500
 30
0.0000
  0
SEQEND
  8
0
  0
POLYLINE
  8
20
 66
1
 10
0.0000
 20
0.0000
 30
0.0000
 40
0.1000
 41
0.1000
 70
0
  0
VERTEX
  8
20
 10
0.0000
 20
130.0500
 30
0.0000
 42
1.0000
  0
VERTEX
  8
20
 10
0.0000
 20
129.9500
 30
0.0000
  0
SEQEND
  8
0
  0
POLYLINE
  8
20
 66
1
 10
0.0000
 20
0.0000
 30
0.0000
 40
0.2000
 41
0.2000
 70
0
  0
VERTEX
  8
20
 10
200.0000
 20
0.0000
 30
0.0000
  0
VERTEX
  8
20
 10
200.0000
 20
19.0000
 30
0.0000
  0
SEQEND
  8
0
  0
POLYLINE
  8
20
 66
1
 10
0.0000
 20
0.0000
 30
0.0000
 40
0.1000
 41
0.1000
 70
0
  0
VERTEX
  8
20
 10
200.0500
 20
19.0000
 30
0.0000
 42
1.0000
  0
VERTEX
  8
20
 10
199.9500
 20
19.0000
 30
0.0000
  0
SEQEND
  8
0
  0
POLYLINE
  8
20
 66
1
 10
0.0000
 20
0.0000
 30
0.0000
 40
0.1000
 41
0.1000
 70
0
  0
VERTEX
  8
20
 10
199.9500
 20
0.0000
 30
0.0000
 42
1.0000
  0
VERTEX
  8
20
 10
200.0500
 20
0.0000
 30
0.0000
  0
SEQEND
  8
0
  0
POLYLINE
  8
20
 66
1
 10
0.0000
 20
0.0000
 30
0.0000
 40
0.2000
 41
0.2000
 70
0
  0
VERTEX
  8
20
 10
193.5000
 20
25.0000
 30
0.0000
 42
0.4388
  0
VERTEX
  8
20
 10
200.0000
 20
19.0000
 30
0.0000
  0
SEQEND
  8
0
  0
POLYLINE
  8
20
 66
1
 10
0.0000
 20
0.0000
 30
0.0000
 40
0.1000
 41
0.1000
 70
0
  0
VERTEX
  8
20
 10
193.5500
 20
24.9999
 30
0.0000
 42
1.0000
  0
VERTEX
  8
20
 10
193.4500
 20
25.0001
 30
0.0000
  0
SEQEND
  8
0
  0
POLYLINE
  8
20
 66
1
 10
0.0000
 20
0.0000
 30
0.0000
 40
0.1000
 41
0.1000
 70
0
  0
VERTEX
  8
20
 10
200.0041
 20
18.9502
 30
0.0000
 42
1.0000
  0
VERTEX
  8
20
 10
199.9959
 20
19.0498
 30
0.0000
  0
SEQEND
  8
0
  0
POLYLINE
  8
20
 66
1
 10
0.0000
 20
0.0000
 30
0.0000
 40
0.2000
 41
0.2000
 70
0
  0
VERTEX
  8
20
 10
200.0000
 20
51.0000
 30
0.0000
 42
0.4388
  0
VERTEX
  8
20
 10
193.5000
 20
45.0000
 30
0.0000
  0
SEQEND
  8
0
  0
POLYLINE
  8
20
 66
1
 10
0.0000
 20
0.0000
 30
0.0000
 40
0.1000
 41
0.1000
 70
0
  0
VERTEX
  8
20
 10
199.9959
 20
50.9502
 30
0.0000
 42
1.0000
  0
VERTEX
  8
20
 10
200.0041
 20
51.0498
 30
0.0000
  0
SEQEND
  8
0
  0
POLYLINE
  8
20
 66
1
 10
0.0000
 20
0.0000
 30
0.0000
 40
0.1000
 41
0.1000
 70
0
  0
VERTEX
  8
20
 10
193.4500
 20
44.9999
 30
0.0000
 42
1.0000
  0
VERTEX
  8
20
 10
193.5500
 20
45.0001
 30
0.0000
  0
SEQEND
  8
0
  0
POLYLINE
  8
20
 66
1
 10
0.0000
 20
0.0000
 30
0.0000
 40
0.2000
 41
0.2000
 70
0
  0
VERTEX
  8
20
 10
193.5000
 20
25.0000
 30
0.0000
  0
VERTEX
  8
20
 10
193.5000
 20
45.0000
 30
0.0000
  0
SEQEND
  8
0
  0
POLYLINE
  8
20
 66
1
 10
0.0000
 20
0.0000
 30
0.0000
 40
0.1000
 41
0.1000
 70
0
  0
VERTEX
  8
20
 10
193.5500
 20
45.0000
 30
0.0000
 42
1.0000
  0
VERTEX
  8
20
 10
193.4500
 20
45.0000
 30
0.0000
  0
SEQEND
  8
0
  0
POLYLINE
  8
20
 66
1
 10
0.0000
 20
0.0000
 30
0.0000
 40
0.1000
 41
0.1000
 70
0
  0
VERTEX
  8
20
 10
193.4500
 20
25.0000
 30
0.0000
 42
1.0000
  0
VERTEX
  8
20
 10
193.5500
 20
25.0000
 30
0.0000
  0
SEQEND
  8
0
  0
POLYLINE
  8
20
 66
1
 10
0.0000
 20
0.0000
 30
0.0000
 40
0.2000
 41
0.2000
 70
0
  0
VERTEX
  8
20
 10
200.0000
 20
51.0000
 30
0.0000
  0
VERTEX
  8
20
 10
200.0000
 20
130.0000
 30
0.0000
  0
SEQEND
  8
0
  0
POLYLINE
  8
20
 66
1
 10
0.0000
 20
0.0000
 30
0.0000
 40
0.1000
 41
0.1000
 70
0
  0
VERTEX
  8
20
 10
200.0500
 20
130.0000
 30
0.0000
 42
1.0000
  0
VERTEX
  8
20
 10
199.9500
 20
130.0000
 30
0.0000
  0
SEQEND
  8
0
  0
POLYLINE
  8
20
 66
1
 10
0.0000
 20
0.0000
 30
0.0000
 40
0.1000
 41
0.1000
 70
0
  0
VERTEX
  8
20
 10
199.9500
 20
51.0000
 30
0.0000
 42
1.0000
  0
VERTEX
  8
20
 10
200.0500
 20
51.0000
 30
0.0000
  0
SEQEND
  8
0
  0
POLYLINE
  8
40
 66
1
 10
0.0000
 20
0.0000
 30
0.0000
 40
0.0508
 41
0.0508
 70
0
  0
VERTEX
  8
40
 10
80.4730
 20
40.9830
 30
0.0000
  0
VERTEX
  8
40
 10
75.5270
 20
40.9830
 30
0.0000
  0
SEQEND
  8
0
  0
POLYLINE
  8
40
 66
1
 10
0.0000
 20
0.0000
 30
0.0000
 40
0.0254
 41
0.0254
 70
0
  0
VERTEX
  8
40
 10
75.5270
 20
40.9957
 30
0.0000
 42
1.0000
  0
VERTEX
  8
40
 10
75.5270
 20
40.9703
 30
0.0000
  0
SEQEND
  8
0
  0
POLYLINE
  8
40
 66
1
 10
0.0000
 20
0.0000
 30
0.0000
 40
0.0254
 41
0.0254
 70
0
  0
VERTEX
  8
40
 10
80.4730
 20
40.9703
 30
0.0000
 42
1.0000
  0
VERTEX
  8
40
 10
80.4730
 20
40.9957
 30
0.0000
  0
SEQEND
  8
0
  0
POLYLINE
  8
40
 66
1
 10
0.0000
 20
0.0000
 30
0.0000
 40
0.0508
 41
0.0508
 70
0
  0
VERTEX
  8
40
 10
75.5270
 20
39.0170
 30
0.0000
  0
VERTEX
  8
40
 10
80.4730
 20
39.0170
 30
0.0000
  0
SEQEND
  8
0
  0
POLYLINE
  8
40
 66
1
 10
0.0000
 20
0.0000
 30
0.0000
 40
0.0254
 41
0.0254
 70
0
  0
VERTEX
  8
40
 10
80.4730
 20
39.0043
 30
0.0000
 42
1.0000
  0
VERTEX
  8
40
 10
80.4730
 20
39.0297
 30
0.0000
  0
SEQEND
  8
0
  0
POLYLINE
  8
40
 66
1
 10
0.0000
 20
0.0000
 30
0.0000
 40
0.0254
 41
0.0254
 70
0
  0
VERTEX
  8
40
 10
75.5270
 20
39.0297
 30
0.0000
 42
1.0000
  0
VERTEX
  8
40
 10
75.5270
 20
39.0043
 30
0.0000
  0
SEQEND
  8
0
  0
POLYLINE
  8
40
 66
1
 10
0.0000
 20
0.0000
 30
0.0000
 40
0.0508
 41
0.0508
 70
0
  0
VERTEX
  8
40
 10
80.4730
 20
39.0170
 30
0.0000
  0
VERTEX
  8
40
 10
80.4730
 20
40.9830
 30
0.0000
  0
SEQEND
  8
0
  0
POLYLINE
  8
40
 66
1
 10
0.0000
 20
0.0000
 30
0.0000
 40
0.0254
 41
0.0254
 70
0
  0
VERTEX
  8
40
 10
80.4857
 20
40.9830
 30
0.0000
 42
1.0000
  0
VERTEX
  8
40
 10
80.4603
 20
40.9830
 30
0.0000
  0
SEQEND
  8
0
  0
POLYLINE
  8
40
 66
1
 10
0.0000
 20
0.0000
 30
0.0000
 40
0.0254
 41
0.0254
 70
0
  0
VERTEX
  8
40
 10
80.4603
 20
39.0170
 30
0.0000
 42
1.0000
  0
VERTEX
  8
40
 10
80.4857
 20
39.0170
 30
0.0000
  0
SEQEND
  8
0
  0
POLYLINE
  8
40
 66
1
 10
0.0000
 20
0.0000
 30
0.0000
 40
0.0508
 41
0.0508
 70
0
  0
VERTEX
  8
40
 10
75.5270
 20
40.9830
 30
0.0000
  0
VERTEX
  8
40
 10
75.5270
 20
39.0170
 30
0.0000
  0
SEQEND
  8
0
  0
POLYLINE
  8
40
 66
1
 10
0.0000
 20
0.0000
 30
0.0000
 40
0.0254
 41
0.0254
 70
0
  0
VERTEX
  8
40
 10
75.5143
 20
39.0170
 30
0.0000
 42
1.0000
  0
VERTEX
  8
40
 10
75.5397
 20
39.0170
 30
0.0000
  0
SEQEND
  8
0
  0
POLYLINE
  8
40
 66
1
 10
0.0000
 20
0.0000
 30
0.0000
 40
0.0254
 41
0.0254
 70
0
  0
VERTEX
  8
40
 10
75.5397
 20
40.9830
 30
0.0000
 42
1.0000
  0
VERTEX
  8
40
 10
75.5143
 20
40.9830
 30
0.0000
  0
SEQEND
  8
0
  0
POLYLINE
  8
40
 66
1
 10
0.0000
 20
0.0000
 30
0.0000
 40
1.0160
 41
1.0160
 70
0
  0
VERTEX
  8
40
 10
100.0000
 20
61.4440
 30
0.0000
 42
1.0000
  0
VERTEX
  8
40
 10
100.0000
 20
68.5560
 30
0.0000
 42
1.0000
  0
VERTEX
  8
40
 10
100.0000
 20
61.4440
 30
0.0000
  0
SEQEND
  8
0
  0
POLYLINE
  8
40
 66
1
 10
0.0000
 20
0.0000
 30
0.0000
 40
1.0160
 41
1.0160
 70
0
  0
VERTEX
  8
40
 10
165.0000
 20
61.4440
 30
0.0000
 42
1.0000
  0
VERTEX
  8
40
 10
165.0000
 20
68.5560
 30
0.0000
 42
1.0000
  0
VERTEX
  8
40
 10
165.0000
 20
61.4440
 30
0.0000
  0
SEQEND
  8
0
  0
POLYLINE
  8
40
 66
1
 10
0.0000
 20
0.0000
 30
0.0000
 40
1.0160
 41
1.0160
 70
0
  0
VERTEX
  8
40
 10
193.0000
 20
7.4440
 30
0.0000
 42
1.0000
  0
VERTEX
  8
40
 10
193.0000
 20
14.5560
 30
0.0000
 42
1.0000
  0
VERTEX
  8
40
 10
193.0000
 20
7.4440
 30
0.0000
  0
SEQEND
  8
0
  0
POLYLINE
  8
40
 66
1
 10
0.0000
 20
0.0000
 30
0.0000
 40
1.0160
 41
1.0160
 70
0
  0
VERTEX
  8
40
 10
7.0000
 20
7.4440
 30
0.0000
 42
1.0000
  0
VERTEX
  8
40
 10
7.0000
 20
14.5560
 30
0.0000
 42
1.0000
  0
VERTEX
  8
40
 10
7.0000
 20
7.4440
 30
0.0000
  0
SEQEND
  8
0
  0
POLYLINE
  8
40
 66
1
 10
0.0000
 20
0.0000
 30
0.0000
 40
1.0160
 41
1.0160
 70
0
  0
VERTEX
  8
40
 10
193.0000
 20
115.4440
 30
0.0000
 42
1.0000
  0
VERTEX
  8
40
 10
193.0000
 20
122.5560
 30
0.0000
 42
1.0000
  0
VERTEX
  8
40
 10
193.0000
 20
115.4440
 30
0.0000
  0
SEQEND
  8
0
  0
POLYLINE
  8
40
 66
1
 10
0.0000
 20
0.0000
 30
0.0000
 40
1.0160
 41
1.0160
 70
0
  0
VERTEX
  8
40
 10
7.0000
 20
115.4440
 30
0.0000
 42
1.0000
  0
VERTEX
  8
40
 10
7.0000
 20
122.5560
 30
0.0000
 42
1.0000
  0
VERTEX
  8
40
 10
7.0000
 20
115.4440
 30
0.0000
  0
SEQEND
  8
0
  0
POLYLINE
  8
40
 66
1
 10
0.0000
 20
0.0000
 30
0.0000
 40
0.0508
 41
0.0508
 70
0
  0
VERTEX
  8
40
 10
81.5270
 20
38.5170
 30
0.0000
  0
VERTEX
  8
40
 10
86.4730
 20
38.5170
 30
0.0000
  0
SEQEND
  8
0
  0
POLYLINE
  8
40
 66
1
 10
0.0000
 20
0.0000
 30
0.0000
 40
0.0254
 41
0.0254
 70
0
  0
VERTEX
  8
40
 10
86.4730
 20
38.5043
 30
0.0000
 42
1.0000
  0
VERTEX
  8
40
 10
86.4730
 20
38.5297
 30
0.0000
  0
SEQEND
  8
0
  0
POLYLINE
  8
40
 66
1
 10
0.0000
 20
0.0000
 30
0.0000
 40
0.0254
 41
0.0254
 70
0
  0
VERTEX
  8
40
 10
81.5270
 20
38.5297
 30
0.0000
 42
1.0000
  0
VERTEX
  8
40
 10
81.5270
 20
38.5043
 30
0.0000
  0
SEQEND
  8
0
  0
POLYLINE
  8
40
 66
1
 10
0.0000
 20
0.0000
 30
0.0000
 40
0.0508
 41
0.0508
 70
0
  0
VERTEX
  8
40
 10
86.4730
 20
41.4830
 30
0.0000
  0
VERTEX
  8
40
 10
81.5270
 20
41.4830
 30
0.0000
  0
SEQEND
  8
0
  0
POLYLINE
  8
40
 66
1
 10
0.0000
 20
0.0000
 30
0.0000
 40
0.0254
 41
0.0254
 70
0
  0
VERTEX
  8
40
 10
81.5270
 20
41.4957
 30
0.0000
 42
1.0000
  0
VERTEX
  8
40
 10
81.5270
 20
41.4703
 30
0.0000
  0
SEQEND
  8
0
  0
POLYLINE
  8
40
 66
1
 10
0.0000
 20
0.0000
 30
0.0000
 40
0.0254
 41
0.0254
 70
0
  0
VERTEX
  8
40
 10
86.4730
 20
41.4703
 30
0.0000
 42
1.0000
  0
VERTEX
  8
40
 10
86.4730
 20
41.4957
 30
0.0000
  0
SEQEND
  8
0
  0
POLYLINE
  8
40
 66
1
 10
0.0000
 20
0.0000
 30
0.0000
 40
0.0508
 41
0.0508
 70
0
  0
VERTEX
  8
40
 10
81.5270
 20
41.4830
 30
0.0000
  0
VERTEX
  8
40
 10
81.5270
 20
38.5170
 30
0.0000
  0
SEQEND
  8
0
  0
POLYLINE
  8
40
 66
1
 10
0.0000
 20
0.0000
 30
0.0000
 40
0.0254
 41
0.0254
 70
0
  0
VERTEX
  8
40
 10
81.5143
 20
38.5170
 30
0.0000
 42
1.0000
  0
VERTEX
  8
40
 10
81.5397
 20
38.5170
 30
0.0000
  0
SEQEND
  8
0
  0
POLYLINE
  8
40
 66
1
 10
0.0000
 20
0.0000
 30
0.0000
 40
0.0254
 41
0.0254
 70
0
  0
VERTEX
  8
40
 10
81.5397
 20
41.4830
 30
0.0000
 42
1.0000
  0
VERTEX
  8
40
 10
81.5143
 20
41.4830
 30
0.0000
  0
SEQEND
  8
0
  0
POLYLINE
  8
40
 66
1
 10
0.0000
 20
0.0000
 30
0.0000
 40
0.0508
 41
0.0508
 70
0
  0
VERTEX
  8
40
 10
86.4730
 20
38.5170
 30
0.0000
  0
VERTEX
  8
40
 10
86.4730
 20
41.4830
 30
0.0000
  0
SEQEND
  8
0
  0
POLYLINE
  8
40
 66
1
 10
0.0000
 20
0.0000
 30
0.0000
 40
0.0254
 41
0.0254
 70
0
  0
VERTEX
  8
40
 10
86.4857
 20
41.4830
 30
0.0000
 42
1.0000
  0
VERTEX
  8
40
 10
86.4603
 20
41.4830
 30
0.0000
  0
SEQEND
  8
0
  0
POLYLINE
  8
40
 66
1
 10
0.0000
 20
0.0000
 30
0.0000
 40
0.0254
 41
0.0254
 70
0
  0
VERTEX
  8
40
 10
86.4603
 20
38.5170
 30
0.0000
 42
1.0000
  0
VERTEX
  8
40
 10
86.4857
 20
38.5170
 30
0.0000
  0
SEQEND
  8
0
  0
ARC
  8
46
 10
162.0500
 20
1.3800
 30
0.0000
 40
0.3000
 50
270.0000
 51
0.0000
  0
LINE
  8
46
 10
162.3500
 20
1.3800
 30
0.0000
 11
162.3500
 21
2.5800
 31
0.0000
  0
ARC
  8
46
 10
162.0500
 20
2.5800
 30
0.0000
 40
0.3000
 50
0.0000
 51
90.0000
  0
ARC
  8
46
 10
162.0500
 20
2.5800
 30
0.0000
 40
0.3000
 50
90.0000
 51
180.0000
  0
LINE
  8
46
 10
161.7500
 20
2.5800
 30
0.0000
 11
161.7500
 21
1.3800
 31
0.0000
  0
ARC
  8
46
 10
162.0500
 20
1.3800
 30
0.0000
 40
0.3000
 50
180.0000
 51
270.0000
  0
ARC
  8
46
 10
162.0500
 20
5.5300
 30
0.0000
 40
0.3000
 50
270.0000
 51
0.0000
  0
LINE
  8
46
 10
162.3500
 20
5.5300
 30
0.0000
 11
162.3500
 21
6.4300
 31
0.0000
  0
ARC
  8
46
 10
162.0500
 20
6.4300
 30
0.0000
 40
0.3000
 50
0.0000
 51
90.0000
  0
ARC
  8
46
 10
162.0500
 20
6.4300
 30
0.0000
 40
0.3000
 50
90.0000
 51
180.0000
  0
LINE
  8
46
 10
161.7500
 20
6.4300
 30
0.0000
 11
161.7500
 21
5.5300
 31
0.0000
  0
ARC
  8
46
 10
162.0500
 20
5.5300
 30
0.0000
 40
0.3000
 50
180.0000
 51
270.0000
  0
ARC
  8
46
 10
171.9500
 20
1.3800
 30
0.0000
 40
0.3000
 50
270.0000
 51
0.0000
  0
LINE
  8
46
 10
172.2500
 20
1.3800
 30
0.0000
 11
172.2500
 21
2.5800
 31
0.0000
  0
ARC
  8
46
 10
171.9500
 20
2.5800
 30
0.0000
 40
0.3000
 50
0.0000
 51
90.0000
  0
ARC
  8
46
 10
171.9500
 20
2.5800
 30
0.0000
 40
0.3000
 50
90.0000
 51
180.0000
  0
LINE
  8
46
 10
171.6500
 20
2.5800
 30
0.0000
 11
171.6500
 21
1.3800
 31
0.0000
  0
ARC
  8
46
 10
171.9500
 20
1.3800
 30
0.0000
 40
0.3000
 50
180.0000
 51
270.0000
  0
ARC
  8
46
 10
171.9500
 20
5.5300
 30
0.0000
 40
0.3000
 50
270.0000
 51
0.0000
  0
LINE
  8
46
 10
172.2500
 20
5.5300
 30
0.0000
 11
172.2500
 21
6.4300
 31
0.0000
  0
ARC
  8
46
 10
171.9500
 20
6.4300
 30
0.0000
 40
0.3000
 50
0.0000
 51
90.0000
  0
ARC
  8
46
 10
171.9500
 20
6.4300
 30
0.0000
 40
0.3000
 50
90.0000
 51
180.0000
  0
LINE
  8
46
 10
171.6500
 20
6.4300
 30
0.0000
 11
171.6500
 21
5.5300
 31
0.0000
  0
ARC
  8
46
 10
171.9500
 20
5.5300
 30
0.0000
 40
0.3000
 50
180.0000
 51
270.0000
  0
LINE
  8
46
 10
163.0500
 20
0.0300
 30
0.0000
 11
163.0500
 21
4.7300
 31
0.0000
  0
ARC
  8
46
 10
163.8500
 20
4.7300
 30
0.0000
 40
0.8000
 50
90.0000
 51
180.0000
  0
LINE
  8
46
 10
163.8500
 20
5.5300
 30
0.0000
 11
170.1500
 21
5.5300
 31
0.0000
  0
ARC
  8
46
 10
170.1500
 20
4.7300
 30
0.0000
 40
0.8000
 50
0.0000
 51
90.0000
  0
LINE
  8
46
 10
170.9500
 20
4.7300
 30
0.0000
 11
170.9500
 21
0.0300
 31
0.0000
  0
LINE
  8
46
 10
163.0500
 20
0.0300
 30
0.0000
 11
170.9500
 21
0.0300
 31
0.0000
  0
POLYLINE
  8
40
 66
1
 10
0.0000
 20
0.0000
 30
0.0000
 40
0.0508
 41
0.0508
 70
0
  0
VERTEX
  8
40
 10
62.0170
 20
29.4730
 30
0.0000
  0
VERTEX
  8
40
 10
62.0170
 20
26.5270
 30
0.0000
  0
SEQEND
  8
0
  0
POLYLINE
  8
40
 66
1
 10
0.0000
 20
0.0000
 30
0.0000
 40
0.0254
 41
0.0254
 70
0
  0
VERTEX
  8
40
 10
62.0043
 20
26.5270
 30
0.0000
 42
1.0000
  0
VERTEX
  8
40
 10
62.0297
 20
26.5270
 30
0.0000
  0
SEQEND
  8
0
  0
POLYLINE
  8
40
 66
1
 10
0.0000
 20
0.0000
 30
0.0000
 40
0.0254
 41
0.0254
 70
0
  0
VERTEX
  8
40
 10
62.0297
 20
29.4730
 30
0.0000
 42
1.0000
  0
VERTEX
  8
40
 10
62.0043
 20
29.4730
 30
0.0000
  0
SEQEND
  8
0
  0
POLYLINE
  8
40
 66
1
 10
0.0000
 20
0.0000
 30
0.0000
 40
0.0508
 41
0.0508
 70
0
  0
VERTEX
  8
40
 10
62.0170
 20
26.5270
 30
0.0000
  0
VERTEX
  8
40
 10
63.9830
 20
26.5270
 30
0.0000
  0
SEQEND
  8
0
  0
POLYLINE
  8
40
 66
1
 10
0.0000
 20
0.0000
 30
0.0000
 40
0.0254
 41
0.0254
 70
0
  0
VERTEX
  8
40
 10
63.9830
 20
26.5143
 30
0.0000
 42
1.0000
  0
VERTEX
  8
40
 10
63.9830
 20
26.5397
 30
0.0000
  0
SEQEND
  8
0
  0
POLYLINE
  8
40
 66
1
 10
0.0000
 20
0.0000
 30
0.0000
 40
0.0254
 41
0.0254
 70
0
  0
VERTEX
  8
40
 10
62.0170
 20
26.5397
 30
0.0000
 42
1.0000
  0
VERTEX
  8
40
 10
62.0170
 20
26.5143
 30
0.0000
  0
SEQEND
  8
0
  0
POLYLINE
  8
40
 66
1
 10
0.0000
 20
0.0000
 30
0.0000
 40
0.0508
 41
0.0508
 70
0
  0
VERTEX
  8
40
 10
63.9830
 20
26.5270
 30
0.0000
  0
VERTEX
  8
40
 10
63.9830
 20
29.4730
 30
0.0000
  0
SEQEND
  8
0
  0
POLYLINE
  8
40
 66
1
 10
0.0000
 20
0.0000
 30
0.0000
 40
0.0254
 41
0.0254
 70
0
  0
VERTEX
  8
40
 10
63.9957
 20
29.4730
 30
0.0000
 42
1.0000
  0
VERTEX
  8
40
 10
63.9703
 20
29.4730
 30
0.0000
  0
SEQEND
  8
0
  0
POLYLINE
  8
40
 66
1
 10
0.0000
 20
0.0000
 30
0.0000
 40
0.0254
 41
0.0254
 70
0
  0
VERTEX
  8
40
 10
63.9703
 20
26.5270
 30
0.0000
 42
1.0000
  0
VERTEX
  8
40
 10
63.9957
 20
26.5270
 30
0.0000
  0
SEQEND
  8
0
  0
POLYLINE
  8
40
 66
1
 10
0.0000
 20
0.0000
 30
0.0000
 40
0.0508
 41
0.0508
 70
0
  0
VERTEX
  8
40
 10
63.9830
 20
29.4730
 30
0.0000
  0
VERTEX
  8
40
 10
62.0170
 20
29.4730
 30
0.0000
  0
SEQEND
  8
0
  0
POLYLINE
  8
40
 66
1
 10
0.0000
 20
0.0000
 30
0.0000
 40
0.0254
 41
0.0254
 70
0
  0
VERTEX
  8
40
 10
62.0170
 20
29.4857
 30
0.0000
 42
1.0000
  0
VERTEX
  8
40
 10
62.0170
 20
29.4603
 30
0.0000
  0
SEQEND
  8
0
  0
POLYLINE
  8
40
 66
1
 10
0.0000
 20
0.0000
 30
0.0000
 40
0.0254
 41
0.0254
 70
0
  0
VERTEX
  8
40
 10
63.9830
 20
29.4603
 30
0.0000
 42
1.0000
  0
VERTEX
  8
40
 10
63.9830
 20
29.4857
 30
0.0000
  0
SEQEND
  8
0
  0
POLYLINE
  8
40
 66
1
 10
0.0000
 20
0.0000
 30
0.0000
 40
0.0508
 41
0.0508
 70
0
  0
VERTEX
  8
40
 10
96.0170
 20
27.4730
 30
0.0000
  0
VERTEX
  8
40
 10
96.0170
 20
24.5270
 30
0.0000
  0
SEQEND
  8
0
  0
POLYLINE
  8
40
 66
1
 10
0.0000
 20
0.0000
 30
0.0000
 40
0.0254
 41
0.0254
 70
0
  0
VERTEX
  8
40
 10
96.0043
 20
24.5270
 30
0.0000
 42
1.0000
  0
VERTEX
  8
40
 10
96.0297
 20
24.5270
 30
0.0000
  0
SEQEND
  8
0
  0
POLYLINE
  8
40
 66
1
 10
0.0000
 20
0.0000
 30
0.0000
 40
0.0254
 41
0.0254
 70
0
  0
VERTEX
  8
40
 10
96.0297
 20
27.4730
 30
0.0000
 42
1.0000
  0
VERTEX
  8
40
 10
96.0043
 20
27.4730
 30
0.0000
  0
SEQEND
  8
0
  0
POLYLINE
  8
40
 66
1
 10
0.0000
 20
0.0000
 30
0.0000
 40
0.0508
 41
0.0508
 70
0
  0
VERTEX
  8
40
 10
96.0170
 20
24.5270
 30
0.0000
  0
VERTEX
  8
40
 10
97.9830
 20
24.5270
 30
0.0000
  0
SEQEND
  8
0
  0
POLYLINE
  8
40
 66
1
 10
0.0000
 20
0.0000
 30
0.0000
 40
0.0254
 41
0.0254
 70
0
  0
VERTEX
  8
40
 10
97.9830
 20
24.5143
 30
0.0000
 42
1.0000
  0
VERTEX
  8
40
 10
97.9830
 20
24.5397
 30
0.0000
  0
SEQEND
  8
0
  0
POLYLINE
  8
40
 66
1
 10
0.0000
 20
0.0000
 30
0.0000
 40
0.0254
 41
0.0254
 70
0
  0
VERTEX
  8
40
 10
96.0170
 20
24.5397
 30
0.0000
 42
1.0000
  0
VERTEX
  8
40
 10
96.0170
 20
24.5143
 30
0.0000
  0
SEQEND
  8
0
  0
POLYLINE
  8
40
 66
1
 10
0.0000
 20
0.0000
 30
0.0000
 40
0.0508
 41
0.0508
 70
0
  0
VERTEX
  8
40
 10
97.9830
 20
24.5270
 30
0.0000
  0
VERTEX
  8
40
 10
97.9830
 20
27.4730
 30
0.0000
  0
SEQEND
  8
0
  0
POLYLINE
  8
40
 66
1
 10
0.0000
 20
0.0000
 30
0.0000
 40
0.0254
 41
0.0254
 70
0
  0
VERTEX
  8
40
 10
97.9957
 20
27.4730
 30
0.0000
 42
1.0000
  0
VERTEX
  8
40
 10
97.9703
 20
27.4730
 30
0.0000
  0
SEQEND
  8
0
  0
POLYLINE
  8
40
 66
1
 10
0.0000
 20
0.0000
 30
0.0000
 40
0.0254
 41
0.0254
 70
0
  0
VERTEX
  8
40
 10
97.9703
 20
24.5270
 30
0.0000
 42
1.0000
  0
VERTEX
  8
40
 10
97.9957
 20
24.5270
 30
0.0000
  0
SEQEND
  8
0
  0
POLYLINE
  8
40
 66
1
 10
0.0000
 20
0.0000
 30
0.0000
 40
0.0508
 41
0.0508
 70
0
  0
VERTEX
  8
40
 10
97.9830
 20
27.4730
 30
0.0000
  0
VERTEX
  8
40
 10
96.0170
 20
27.4730
 30
0.0000
  0
SEQEND
  8
0
  0
POLYLINE
  8
40
 66
1
 10
0.0000
 20
0.0000
 30
0.0000
 40
0.0254
 41
0.0254
 70
0
  0
VERTEX
  8
40
 10
96.0170
 20
27.4857
 30
0.0000
 42
1.0000
  0
VERTEX
  8
40
 10
96.0170
 20
27.4603
 30
0.0000
  0
SEQEND
  8
0
  0
POLYLINE
  8
40
 66
1
 10
0.0000
 20
0.0000
 30
0.0000
 40
0.0254
 41
0.0254
 70
0
  0
VERTEX
  8
40
 10
97.9830
 20
27.4603
 30
0.0000
 42
1.0000
  0
VERTEX
  8
40
 10
97.9830
 20
27.4857
 30
0.0000
  0
SEQEND
  8
0
  0
POLYLINE
  8
40
 66
1
 10
0.0000
 20
0.0000
 30
0.0000
 40
0.0508
 41
0.0508
 70
0
  0
VERTEX
  8
40
 10
63.9830
 20
30.5270
 30
0.0000
  0
VERTEX
  8
40
 10
63.9830
 20
33.4730
 30
0.0000
  0
SEQEND
  8
0
  0
POLYLINE
  8
40
 66
1
 10
0.0000
 20
0.0000
 30
0.0000
 40
0.0254
 41
0.0254
 70
0
  0
VERTEX
  8
40
 10
63.9957
 20
33.4730
 30
0.0000
 42
1.0000
  0
VERTEX
  8
40
 10
63.9703
 20
33.4730
 30
0.0000
  0
SEQEND
  8
0
  0
POLYLINE
  8
40
 66
1
 10
0.0000
 20
0.0000
 30
0.0000
 40
0.0254
 41
0.0254
 70
0
  0
VERTEX
  8
40
 10
63.9703
 20
30.5270
 30
0.0000
 42
1.0000
  0
VERTEX
  8
40
 10
63.9957
 20
30.5270
 30
0.0000
  0
SEQEND
  8
0
  0
POLYLINE
  8
40
 66
1
 10
0.0000
 20
0.0000
 30
0.0000
 40
0.0508
 41
0.0508
 70
0
  0
VERTEX
  8
40
 10
63.9830
 20
33.4730
 30
0.0000
  0
VERTEX
  8
40
 10
62.0170
 20
33.4730
 30
0.0000
  0
SEQEND
  8
0
  0
POLYLINE
  8
40
 66
1
 10
0.0000
 20
0.0000
 30
0.0000
 40
0.0254
 41
0.0254
 70
0
  0
VERTEX
  8
40
 10
62.0170
 20
33.4857
 30
0.0000
 42
1.0000
  0
VERTEX
  8
40
 10
62.0170
 20
33.4603
 30
0.0000
  0
SEQEND
  8
0
  0
POLYLINE
  8
40
 66
1
 10
0.0000
 20
0.0000
 30
0.0000
 40
0.0254
 41
0.0254
 70
0
  0
VERTEX
  8
40
 10
63.9830
 20
33.4603
 30
0.0000
 42
1.0000
  0
VERTEX
  8
40
 10
63.9830
 20
33.4857
 30
0.0000
  0
SEQEND
  8
0
  0
POLYLINE
  8
40
 66
1
 10
0.0000
 20
0.0000
 30
0.0000
 40
0.0508
 41
0.0508
 70
0
  0
VERTEX
  8
40
 10
62.0170
 20
33.4730
 30
0.0000
  0
VERTEX
  8
40
 10
62.0170
 20
30.5270
 30
0.0000
  0
SEQEND
  8
0
  0
POLYLINE
  8
40
 66
1
 10
0.0000
 20
0.0000
 30
0.0000
 40
0.0254
 41
0.0254
 70
0
  0
VERTEX
  8
40
 10
62.0043
 20
30.5270
 30
0.0000
 42
1.0000
  0
VERTEX
  8
40
 10
62.0297
 20
30.5270
 30
0.0000
  0
SEQEND
  8
0
  0
POLYLINE
  8
40
 66
1
 10
0.0000
 20
0.0000
 30
0.0000
 40
0.0254
 41
0.0254
 70
0
  0
VERTEX
  8
40
 10
62.0297
 20
33.4730
 30
0.0000
 42
1.0000
  0
VERTEX
  8
40
 10
62.0043
 20
33.4730
 30
0.0000
  0
SEQEND
  8
0
  0
POLYLINE
  8
40
 66
1
 10
0.0000
 20
0.0000
 30
0.0000
 40
0.0508
 41
0.0508
 70
0
  0
VERTEX
  8
40
 10
62.0170
 20
30.5270
 30
0.0000
  0
VERTEX
  8
40
 10
63.9830
 20
30.5270
 30
0.0000
  0
SEQEND
  8
0
  0
POLYLINE
  8
40
 66
1
 10
0.0000
 20
0.0000
 30
0.0000
 40
0.0254
 41
0.0254
 70
0
  0
VERTEX
  8
40
 10
63.9830
 20
30.5143
 30
0.0000
 42
1.0000
  0
VERTEX
  8
40
 10
63.9830
 20
30.5397
 30
0.0000
  0
SEQEND
  8
0
  0
POLYLINE
  8
40
 66
1
 10
0.0000
 20
0.0000
 30
0.0000
 40
0.0254
 41
0.0254
 70
0
  0
VERTEX
  8
40
 10
62.0170
 20
30.5397
 30
0.0000
 42
1.0000
  0
VERTEX
  8
40
 10
62.0170
 20
30.5143
 30
0.0000
  0
SEQEND
  8
0
  0
POLYLINE
  8
40
 66
1
 10
0.0000
 20
0.0000
 30
0.0000
 40
0.0508
 41
0.0508
 70
0
  0
VERTEX
  8
40
 10
96.0170
 20
23.4730
 30
0.0000
  0
VERTEX
  8
40
 10
96.0170
 20
20.5270
 30
0.0000
  0
SEQEND
  8
0
  0
POLYLINE
  8
40
 66
1
 10
0.0000
 20
0.0000
 30
0.0000
 40
0.0254
 41
0.0254
 70
0
  0
VERTEX
  8
40
 10
96.0043
 20
20.5270
 30
0.0000
 42
1.0000
  0
VERTEX
  8
40
 10
96.0297
 20
20.5270
 30
0.0000
  0
SEQEND
  8
0
  0
POLYLINE
  8
40
 66
1
 10
0.0000
 20
0.0000
 30
0.0000
 40
0.0254
 41
0.0254
 70
0
  0
VERTEX
  8
40
 10
96.0297
 20
23.4730
 30
0.0000
 42
1.0000
  0
VERTEX
  8
40
 10
96.0043
 20
23.4730
 30
0.0000
  0
SEQEND
  8
0
  0
POLYLINE
  8
40
 66
1
 10
0.0000
 20
0.0000
 30
0.0000
 40
0.0508
 41
0.0508
 70
0
  0
VERTEX
  8
40
 10
96.0170
 20
20.5270
 30
0.0000
  0
VERTEX
  8
40
 10
97.9830
 20
20.5270
 30
0.0000
  0
SEQEND
  8
0
  0
POLYLINE
  8
40
 66
1
 10
0.0000
 20
0.0000
 30
0.0000
 40
0.0254
 41
0.0254
 70
0
  0
VERTEX
  8
40
 10
97.9830
 20
20.5143
 30
0.0000
 42
1.0000
  0
VERTEX
  8
40
 10
97.9830
 20
20.5397
 30
0.0000
  0
SEQEND
  8
0
  0
POLYLINE
  8
40
 66
1
 10
0.0000
 20
0.0000
 30
0.0000
 40
0.0254
 41
0.0254
 70
0
  0
VERTEX
  8
40
 10
96.0170
 20
20.5397
 30
0.0000
 42
1.0000
  0
VERTEX
  8
40
 10
96.0170
 20
20.5143
 30
0.0000
  0
SEQEND
  8
0
  0
POLYLINE
  8
40
 66
1
 10
0.0000
 20
0.0000
 30
0.0000
 40
0.0508
 41
0.0508
 70
0
  0
VERTEX
  8
40
 10
97.9830
 20
20.5270
 30
0.0000
  0
VERTEX
  8
40
 10
97.9830
 20
23.4730
 30
0.0000
  0
SEQEND
  8
0
  0
POLYLINE
  8
40
 66
1
 10
0.0000
 20
0.0000
 30
0.0000
 40
0.0254
 41
0.0254
 70
0
  0
VERTEX
  8
40
 10
97.9957
 20
23.4730
 30
0.0000
 42
1.0000
  0
VERTEX
  8
40
 10
97.9703
 20
23.4730
 30
0.0000
  0
SEQEND
  8
0
  0
POLYLINE
  8
40
 66
1
 10
0.0000
 20
0.0000
 30
0.0000
 40
0.0254
 41
0.0254
 70
0
  0
VERTEX
  8
40
 10
97.9703
 20
20.5270
 30
0.0000
 42
1.0000
  0
VERTEX
  8
40
 10
97.9957
 20
20.5270
 30
0.0000
  0
SEQEND
  8
0
  0
POLYLINE
  8
40
 66
1
 10
0.0000
 20
0.0000
 30
0.0000
 40
0.0508
 41
0.0508
 70
0
  0
VERTEX
  8
40
 10
97.9830
 20
23.4730
 30
0.0000
  0
VERTEX
  8
40
 10
96.0170
 20
23.4730
 30
0.0000
  0
SEQEND
  8
0
  0
POLYLINE
  8
40
 66
1
 10
0.0000
 20
0.0000
 30
0.0000
 40
0.0254
 41
0.0254
 70
0
  0
VERTEX
  8
40
 10
96.0170
 20
23.4857
 30
0.0000
 42
1.0000
  0
VERTEX
  8
40
 10
96.0170
 20
23.4603
 30
0.0000
  0
SEQEND
  8
0
  0
POLYLINE
  8
40
 66
1
 10
0.0000
 20
0.0000
 30
0.0000
 40
0.0254
 41
0.0254
 70
0
  0
VERTEX
  8
40
 10
97.9830
 20
23.4603
 30
0.0000
 42
1.0000
  0
VERTEX
  8
40
 10
97.9830
 20
23.4857
 30
0.0000
  0
SEQEND
  8
0
  0
POLYLINE
  8
40
 66
1
 10
0.0000
 20
0.0000
 30
0.0000
 40
0.0508
 41
0.0508
 70
0
  0
VERTEX
  8
40
 10
62.0170
 20
25.4730
 30
0.0000
  0
VERTEX
  8
40
 10
62.0170
 20
22.5270
 30
0.0000
  0
SEQEND
  8
0
  0
POLYLINE
  8
40
 66
1
 10
0.0000
 20
0.0000
 30
0.0000
 40
0.0254
 41
0.0254
 70
0
  0
VERTEX
  8
40
 10
62.0043
 20
22.5270
 30
0.0000
 42
1.0000
  0
VERTEX
  8
40
 10
62.0297
 20
22.5270
 30
0.0000
  0
SEQEND
  8
0
  0
POLYLINE
  8
40
 66
1
 10
0.0000
 20
0.0000
 30
0.0000
 40
0.0254
 41
0.0254
 70
0
  0
VERTEX
  8
40
 10
62.0297
 20
25.4730
 30
0.0000
 42
1.0000
  0
VERTEX
  8
40
 10
62.0043
 20
25.4730
 30
0.0000
  0
SEQEND
  8
0
  0
POLYLINE
  8
40
 66
1
 10
0.0000
 20
0.0000
 30
0.0000
 40
0.0508
 41
0.0508
 70
0
  0
VERTEX
  8
40
 10
62.0170
 20
22.5270
 30
0.0000
  0
VERTEX
  8
40
 10
63.9830
 20
22.5270
 30
0.0000
  0
SEQEND
  8
0
  0
POLYLINE
  8
40
 66
1
 10
0.0000
 20
0.0000
 30
0.0000
 40
0.0254
 41
0.0254
 70
0
  0
VERTEX
  8
40
 10
63.9830
 20
22.5143
 30
0.0000
 42
1.0000
  0
VERTEX
  8
40
 10
63.9830
 20
22.5397
 30
0.0000
  0
SEQEND
  8
0
  0
POLYLINE
  8
40
 66
1
 10
0.0000
 20
0.0000
 30
0.0000
 40
0.0254
 41
0.0254
 70
0
  0
VERTEX
  8
40
 10
62.0170
 20
22.5397
 30
0.0000
 42
1.0000
  0
VERTEX
  8
40
 10
62.0170
 20
22.5143
 30
0.0000
  0
SEQEND
  8
0
  0
POLYLINE
  8
40
 66
1
 10
0.0000
 20
0.0000
 30
0.0000
 40
0.0508
 41
0.0508
 70
0
  0
VERTEX
  8
40
 10
63.9830
 20
22.5270
 30
0.0000
  0
VERTEX
  8
40
 10
63.9830
 20
25.4730
 30
0.0000
  0
SEQEND
  8
0
  0
POLYLINE
  8
40
 66
1
 10
0.0000
 20
0.0000
 30
0.0000
 40
0.0254
 41
0.0254
 70
0
  0
VERTEX
  8
40
 10
63.9957
 20
25.4730
 30
0.0000
 42
1.0000
  0
VERTEX
  8
40
 10
63.9703
 20
25.4730
 30
0.0000
  0
SEQEND
  8
0
  0
POLYLINE
  8
40
 66
1
 10
0.0000
 20
0.0000
 30
0.0000
 40
0.0254
 41
0.0254
 70
0
  0
VERTEX
  8
40
 10
63.9703
 20
22.5270
 30
0.0000
 42
1.0000
  0
VERTEX
  8
40
 10
63.9957
 20
22.5270
 30
0.0000
  0
SEQEND
  8
0
  0
POLYLINE
  8
40
 66
1
 10
0.0000
 20
0.0000
 30
0.0000
 40
0.0508
 41
0.0508
 70
0
  0
VERTEX
  8
40
 10
63.9830
 20
25.4730
 30
0.0000
  0
VERTEX
  8
40
 10
62.0170
 20
25.4730
 30
0.0000
  0
SEQEND
  8
0
  0
POLYLINE
  8
40
 66
1
 10
0.0000
 20
0.0000
 30
0.0000
 40
0.0254
 41
0.0254
 70
0
  0
VERTEX
  8
40
 10
62.0170
 20
25.4857
 30
0.0000
 42
1.0000
  0
VERTEX
  8
40
 10
62.0170
 20
25.4603
 30
0.0000
  0
SEQEND
  8
0
  0
POLYLINE
  8
40
 66
1
 10
0.0000
 20
0.0000
 30
0.0000
 40
0.0254
 41
0.0254
 70
0
  0
VERTEX
  8
40
 10
63.9830
 20
25.4603
 30
0.0000
 42
1.0000
  0
VERTEX
  8
40
 10
63.9830
 20
25.4857
 30
0.0000
  0
SEQEND
  8
0
  0
POLYLINE
  8
40
 66
1
 10
0.0000
 20
0.0000
 30
0.0000
 40
0.0508
 41
0.0508
 70
0
  0
VERTEX
  8
40
 10
91.9830
 20
40.5270
 30
0.0000
  0
VERTEX
  8
40
 10
91.9830
 20
43.4730
 30
0.0000
  0
SEQEND
  8
0
  0
POLYLINE
  8
40
 66
1
 10
0.0000
 20
0.0000
 30
0.0000
 40
0.0254
 41
0.0254
 70
0
  0
VERTEX
  8
40
 10
91.9957
 20
43.4730
 30
0.0000
 42
1.0000
  0
VERTEX
  8
40
 10
91.9703
 20
43.4730
 30
0.0000
  0
SEQEND
  8
0
  0
POLYLINE
  8
40
 66
1
 10
0.0000
 20
0.0000
 30
0.0000
 40
0.0254
 41
0.0254
 70
0
  0
VERTEX
  8
40
 10
91.9703
 20
40.5270
 30
0.0000
 42
1.0000
  0
VERTEX
  8
40
 10
91.9957
 20
40.5270
 30
0.0000
  0
SEQEND
  8
0
  0
POLYLINE
  8
40
 66
1
 10
0.0000
 20
0.0000
 30
0.0000
 40
0.0508
 41
0.0508
 70
0
  0
VERTEX
  8
40
 10
91.9830
 20
43.4730
 30
0.0000
  0
VERTEX
  8
40
 10
90.0170
 20
43.4730
 30
0.0000
  0
SEQEND
  8
0
  0
POLYLINE
  8
40
 66
1
 10
0.0000
 20
0.0000
 30
0.0000
 40
0.0254
 41
0.0254
 70
0
  0
VERTEX
  8
40
 10
90.0170
 20
43.4857
 30
0.0000
 42
1.0000
  0
VERTEX
  8
40
 10
90.0170
 20
43.4603
 30
0.0000
  0
SEQEND
  8
0
  0
POLYLINE
  8
40
 66
1
 10
0.0000
 20
0.0000
 30
0.0000
 40
0.0254
 41
0.0254
 70
0
  0
VERTEX
  8
40
 10
91.9830
 20
43.4603
 30
0.0000
 42
1.0000
  0
VERTEX
  8
40
 10
91.9830
 20
43.4857
 30
0.0000
  0
SEQEND
  8
0
  0
POLYLINE
  8
40
 66
1
 10
0.0000
 20
0.0000
 30
0.0000
 40
0.0508
 41
0.0508
 70
0
  0
VERTEX
  8
40
 10
90.0170
 20
43.4730
 30
0.0000
  0
VERTEX
  8
40
 10
90.0170
 20
40.5270
 30
0.0000
  0
SEQEND
  8
0
  0
POLYLINE
  8
40
 66
1
 10
0.0000
 20
0.0000
 30
0.0000
 40
0.0254
 41
0.0254
 70
0
  0
VERTEX
  8
40
 10
90.0043
 20
40.5270
 30
0.0000
 42
1.0000
  0
VERTEX
  8
40
 10
90.0297
 20
40.5270
 30
0.0000
  0
SEQEND
  8
0
  0
POLYLINE
  8
40
 66
1
 10
0.0000
 20
0.0000
 30
0.0000
 40
0.0254
 41
0.0254
 70
0
  0
VERTEX
  8
40
 10
90.0297
 20
43.4730
 30
0.0000
 42
1.0000
  0
VERTEX
  8
40
 10
90.0043
 20
43.4730
 30
0.0000
  0
SEQEND
  8
0
  0
POLYLINE
  8
40
 66
1
 10
0.0000
 20
0.0000
 30
0.0000
 40
0.0508
 41
0.0508
 70
0
  0
VERTEX
  8
40
 10
90.0170
 20
40.5270
 30
0.0000
  0
VERTEX
  8
40
 10
91.9830
 20
40.5270
 30
0.0000
  0
SEQEND
  8
0
  0
POLYLINE
  8
40
 66
1
 10
0.0000
 20
0.0000
 30
0.0000
 40
0.0254
 41
0.0254
 70
0
  0
VERTEX
  8
40
 10
91.9830
 20
40.5143
 30
0.0000
 42
1.0000
  0
VERTEX
  8
40
 10
91.9830
 20
40.5397
 30
0.0000
  0
SEQEND
  8
0
  0
POLYLINE
  8
40
 66
1
 10
0.0000
 20
0.0000
 30
0.0000
 40
0.0254
 41
0.0254
 70
0
  0
VERTEX
  8
40
 10
90.0170
 20
40.5397
 30
0.0000
 42
1.0000
  0
VERTEX
  8
40
 10
90.0170
 20
40.5143
 30
0.0000
  0
SEQEND
  8
0
  0
POLYLINE
  8
40
 66
1
 10
0.0000
 20
0.0000
 30
0.0000
 40
0.0508
 41
0.0508
 70
0
  0
VERTEX
  8
40
 10
94.9830
 20
40.5270
 30
0.0000
  0
VERTEX
  8
40
 10
94.9830
 20
43.4730
 30
0.0000
  0
SEQEND
  8
0
  0
POLYLINE
  8
40
 66
1
 10
0.0000
 20
0.0000
 30
0.0000
 40
0.0254
 41
0.0254
 70
0
  0
VERTEX
  8
40
 10
94.9957
 20
43.4730
 30
0.0000
 42
1.0000
  0
VERTEX
  8
40
 10
94.9703
 20
43.4730
 30
0.0000
  0
SEQEND
  8
0
  0
POLYLINE
  8
40
 66
1
 10
0.0000
 20
0.0000
 30
0.0000
 40
0.0254
 41
0.0254
 70
0
  0
VERTEX
  8
40
 10
94.9703
 20
40.5270
 30
0.0000
 42
1.0000
  0
VERTEX
  8
40
 10
94.9957
 20
40.5270
 30
0.0000
  0
SEQEND
  8
0
  0
POLYLINE
  8
40
 66
1
 10
0.0000
 20
0.0000
 30
0.0000
 40
0.0508
 41
0.0508
 70
0
  0
VERTEX
  8
40
 10
94.9830
 20
43.4730
 30
0.0000
  0
VERTEX
  8
40
 10
93.0170
 20
43.4730
 30
0.0000
  0
SEQEND
  8
0
  0
POLYLINE
  8
40
 66
1
 10
0.0000
 20
0.0000
 30
0.0000
 40
0.0254
 41
0.0254
 70
0
  0
VERTEX
  8
40
 10
93.0170
 20
43.4857
 30
0.0000
 42
1.0000
  0
VERTEX
  8
40
 10
93.0170
 20
43.4603
 30
0.0000
  0
SEQEND
  8
0
  0
POLYLINE
  8
40
 66
1
 10
0.0000
 20
0.0000
 30
0.0000
 40
0.0254
 41
0.0254
 70
0
  0
VERTEX
  8
40
 10
94.9830
 20
43.4603
 30
0.0000
 42
1.0000
  0
VERTEX
  8
40
 10
94.9830
 20
43.4857
 30
0.0000
  0
SEQEND
  8
0
  0
POLYLINE
  8
40
 66
1
 10
0.0000
 20
0.0000
 30
0.0000
 40
0.0508
 41
0.0508
 70
0
  0
VERTEX
  8
40
 10
93.0170
 20
43.4730
 30
0.0000
  0
VERTEX
  8
40
 10
93.0170
 20
40.5270
 30
0.0000
  0
SEQEND
  8
0
  0
POLYLINE
  8
40
 66
1
 10
0.0000
 20
0.0000
 30
0.0000
 40
0.0254
 41
0.0254
 70
0
  0
VERTEX
  8
40
 10
93.0043
 20
40.5270
 30
0.0000
 42
1.0000
  0
VERTEX
  8
40
 10
93.0297
 20
40.5270
 30
0.0000
  0
SEQEND
  8
0
  0
POLYLINE
  8
40
 66
1
 10
0.0000
 20
0.0000
 30
0.0000
 40
0.0254
 41
0.0254
 70
0
  0
VERTEX
  8
40
 10
93.0297
 20
43.4730
 30
0.0000
 42
1.0000
  0
VERTEX
  8
40
 10
93.0043
 20
43.4730
 30
0.0000
  0
SEQEND
  8
0
  0
POLYLINE
  8
40
 66
1
 10
0.0000
 20
0.0000
 30
0.0000
 40
0.0508
 41
0.0508
 70
0
  0
VERTEX
  8
40
 10
93.0170
 20
40.5270
 30
0.0000
  0
VERTEX
  8
40
 10
94.9830
 20
40.5270
 30
0.0000
  0
SEQEND
  8
0
  0
POLYLINE
  8
40
 66
1
 10
0.0000
 20
0.0000
 30
0.0000
 40
0.0254
 41
0.0254
 70
0
  0
VERTEX
  8
40
 10
94.9830
 20
40.5143
 30
0.0000
 42
1.0000
  0
VERTEX
  8
40
 10
94.9830
 20
40.5397
 30
0.0000
  0
SEQEND
  8
0
  0
POLYLINE
  8
40
 66
1
 10
0.0000
 20
0.0000
 30
0.0000
 40
0.0254
 41
0.0254
 70
0
  0
VERTEX
  8
40
 10
93.0170
 20
40.5397
 30
0.0000
 42
1.0000
  0
VERTEX
  8
40
 10
93.0170
 20
40.5143
 30
0.0000
  0
SEQEND
  8
0
  0
CIRCLE
  8
20
 10
67.7900
 20
20.2700
 30
0.0000
 40
0.8000
  0
CIRCLE
  8
20
 10
92.5900
 20
20.2700
 30
0.0000
 40
0.5500
  0
ENDSEC
  0
EOF
